<?xml version="1.0" encoding="utf-8"?>
<!-- Generator: Adobe Illustrator 17.0.0, SVG Export Plug-In . SVG Version: 6.00 Build 0)  -->
<!DOCTYPE svg PUBLIC "-//W3C//DTD SVG 1.1//EN" "http://www.w3.org/Graphics/SVG/1.1/DTD/svg11.dtd">
<svg version="1.1" id="Слой_1" xmlns="http://www.w3.org/2000/svg" xmlns:xlink="http://www.w3.org/1999/xlink" x="0px" y="0px"
	 width="50px" height="50px" viewBox="0 0 50 50" enable-background="new 0 0 50 50" xml:space="preserve">
<g>
	<g>
		
			<path fill="none" stroke="#3D3D3D" stroke-width="1.4545" stroke-linecap="round" stroke-linejoin="round" stroke-miterlimit="10" d="
			M29.549,34.882c-0.067,0.342-0.102,0.695-0.102,1.058c0,2.901,2.239,5.252,5,5.252c2.761,0,5-2.352,5-5.252
			c0-1.048-0.292-2.025-0.796-2.845"/>
	</g>
	<g>
		
			<path fill="none" stroke="#3D3D3D" stroke-width="1.4545" stroke-linecap="round" stroke-linejoin="round" stroke-miterlimit="10" d="
			M31.999,35.409c-0.036,0.172-0.052,0.349-0.052,0.53c0,1.45,1.12,2.626,2.5,2.626c1.38,0,2.5-1.176,2.5-2.626
			c0-0.524-0.146-1.011-0.397-1.422"/>
	</g>
	<g>
		
			<path fill="none" stroke="#3D3D3D" stroke-width="1.4545" stroke-linecap="round" stroke-linejoin="round" stroke-miterlimit="10" d="
			M4.003,32.5c-0.761,0.921-1.222,2.124-1.222,3.439c0,2.901,2.239,5.252,5,5.252c2.761,0,5-2.352,5-5.252"/>
	</g>
	
		<path fill="none" stroke="#3D3D3D" stroke-width="1.4545" stroke-linecap="round" stroke-linejoin="round" stroke-miterlimit="10" d="
		M9.628,33.656c-0.605,0.817-1.231,1.596-1.847,2.283"/>
	
		<path fill="none" stroke="#3D3D3D" stroke-width="1.4545" stroke-linecap="round" stroke-linejoin="round" stroke-miterlimit="10" d="
		M33.243,34.473c0.395,0.519,0.798,1.012,1.204,1.467"/>
	
		<path fill="none" stroke="#3D3D3D" stroke-width="1.4545" stroke-linecap="round" stroke-linejoin="round" stroke-miterlimit="10" d="
		M14.447,36.815c-1.383,0-0.694-1.613-4.987-3.467c-4.754-2.053-7.513,0.266-7.513-2.03c0-1.562,2.399-4.095,7.153-4.095
		c3.771,0,7.014,3.092,7.014,6.966C16.114,36.588,15.122,36.815,14.447,36.815z"/>
	
		<path fill="none" stroke="#3D3D3D" stroke-width="1.4545" stroke-linecap="round" stroke-linejoin="round" stroke-miterlimit="10" d="
		M40.08,23.335c0,0,1.867,2.778,1.867,6.478c0,3.699-10.06,5.251-18.452,5.251c-2.847,0-5.253-0.268-7.241-0.734"/>
	
		<path fill="none" stroke="#3D3D3D" stroke-width="1.4545" stroke-linecap="round" stroke-linejoin="round" stroke-miterlimit="10" d="
		M17.667,12.477c1.484,0.675,3.242,1.477,3.447,1.58c1.367,0.69,0.449,2.065-0.834,1.751c-1.063-0.26-2.5-1.751-2.5-1.751
		c-1.666,4.376-4.459,16.631,5,16.631c3.148,0,5.966,0.491,4.167-6.127c0,0,0.229-1.109,1.111-1.41"/>
	
		<path fill="none" stroke="#3D3D3D" stroke-width="1.4545" stroke-linecap="round" stroke-linejoin="round" stroke-miterlimit="10" d="
		M8.905,26.726c0.119-0.435,0.3-0.866,0.542-1.29c1.164-1.996,4.141-5.903,5.536-11.08"/>
	
		<path fill="none" stroke="#3D3D3D" stroke-width="1.4545" stroke-linecap="round" stroke-linejoin="round" stroke-miterlimit="10" d="
		M11.523,12.153c0,1.236-0.106,2.238,1.954,2.238c2.061,0,3.73-1.002,3.73-2.238c0-1.232-1.669-2.234-3.73-2.234
		C11.417,9.918,11.523,10.921,11.523,12.153z"/>
	
		<path fill="none" stroke="#3D3D3D" stroke-width="1.4638" stroke-linecap="round" stroke-linejoin="round" stroke-miterlimit="10" d="
		M41.947,22.262c0,0.894-3.298,1.432-7.427,1.432c-4.129,0-7.573-0.538-7.573-1.432l0,0c0-0.893,0.662-2.077,1.48-2.077h12.04
		C41.285,20.184,41.947,21.369,41.947,22.262L41.947,22.262z"/>
	
		<ellipse fill="none" stroke="#3D3D3D" stroke-width="1.4545" stroke-linecap="round" stroke-linejoin="round" stroke-miterlimit="10" cx="7.78" cy="35.939" rx="2.5" ry="2.626"/>
</g>
<line fill="none" stroke="#333333" stroke-linecap="round" stroke-linejoin="round" stroke-miterlimit="10" x1="44" y1="21.5" x2="47" y2="21.5"/>
<line fill="none" stroke="#333333" stroke-linecap="round" stroke-linejoin="round" stroke-miterlimit="10" x1="43" y1="23.5" x2="49" y2="23.5"/>
<line fill="none" stroke="#333333" stroke-linecap="round" stroke-linejoin="round" stroke-miterlimit="10" x1="44" y1="25.5" x2="46" y2="25.5"/>
<line fill="none" stroke="#333333" stroke-linecap="round" stroke-linejoin="round" stroke-miterlimit="10" x1="45" y1="27.5" x2="49" y2="27.5"/>
</svg>
