<?xml version="1.0" encoding="utf-8"?>
<!-- Generator: Adobe Illustrator 17.0.0, SVG Export Plug-In . SVG Version: 6.00 Build 0)  -->
<!DOCTYPE svg PUBLIC "-//W3C//DTD SVG 1.1//EN" "http://www.w3.org/Graphics/SVG/1.1/DTD/svg11.dtd">
<svg version="1.1" id="_x31_" xmlns="http://www.w3.org/2000/svg" xmlns:xlink="http://www.w3.org/1999/xlink" x="0px" y="0px"
	 width="141.206px" height="180px" viewBox="33.676 15.632 141.206 180" enable-background="new 33.676 15.632 141.206 180"
	 xml:space="preserve">
<g>
	<path fill="#A5204C" d="M117.019,147.891c-5.198,0-9.868-0.254-13.988-0.782c-4.141-0.507-8.114-1.521-11.938-3.043
		c-3.825-1.521-7.522-3.74-11.093-6.698c-3.486-2.874-6.445-6.17-8.874-9.91c-2.43-3.719-4.226-7.733-5.43-12.002
		c-1.204-4.268-1.796-8.727-1.796-13.333c0-8.346,1.817-15.488,5.473-21.425c3.634-5.937,8.684-10.396,15.129-13.375
		c6.466-2.979,13.798-4.479,21.996-4.479l15.488,1.394c1.69,0.338,3,0.486,3.93,0.486c2.282,0,4.142-0.972,5.557-2.895l4.437,23.433
		l-1.268,0.254c-2.451-5.198-6.064-9.17-10.861-11.938c-4.818-2.768-10.184-4.141-16.143-4.141c-6.043,0-11.199,1.289-15.509,3.867
		c-4.31,2.578-7.543,6.191-9.741,10.818c-2.176,4.627-3.275,9.973-3.275,15.995c0,5.304,0.845,10.459,2.514,15.467
		s4.099,9.529,7.311,13.544s7.078,7.184,11.6,9.487c4.543,2.303,9.572,3.465,15.108,3.465c4.12,0,7.163-0.528,9.128-1.585
		c1.986-1.057,3.233-2.578,3.761-4.564s0.782-4.86,0.782-8.579v-20.031c0-4.585-0.444-8.156-1.352-10.734s-3.127-4.163-6.635-4.712
		v-1.141h28.398v1.141c-2.916,0.57-4.712,1.564-5.409,2.979c-0.697,1.416-1.057,3.803-1.057,7.142v33.723
		c0,3.571,0.359,6.17,1.057,7.755c0.697,1.606,2.493,2.726,5.409,3.402v1.014L117.019,147.891L117.019,147.891z"/>
	<path fill="#A5204C" d="M106.398,20.821c5.513,13.49,20.925,12.179,34.799,10.999c14.581-1.241,27.682-2.355,29.639,11.67
		l0.289,2.073l-2.041,0.479c-4.847,1.138-7.402,4.441-8.373,9.445c-1.088,5.613-0.321,13.285,1.476,22.433
		c1.609,8.191,3.728,16.423,5.838,24.614c1.901,7.384,3.795,14.737,5.273,21.802c8.044,38.453-16.018,46.507-39.008,54.203
		c-11.249,3.765-22.222,7.438-28.22,14.705l-0.697,0.845l-1.086,1.543l-1.102-1.543l-0.697-0.845
		c-5.997-7.267-16.971-10.94-28.22-14.705c-22.99-7.695-47.052-15.75-39.008-54.203c1.478-7.065,3.371-14.417,5.273-21.802
		c2.109-8.191,4.229-16.423,5.838-24.614c1.797-9.148,2.564-16.82,1.476-22.433c-0.97-5.005-3.525-8.308-8.373-9.445l-2.041-0.479
		l0.289-2.073c1.956-14.026,15.057-12.911,29.639-11.67c13.875,1.181,29.286,2.492,34.799-10.999l2.121-5.189L106.398,20.821
		L106.398,20.821z M141.575,36.403c-14.039,1.194-29.489,2.508-37.297-9.728C96.47,38.911,81.02,37.598,66.981,36.403
		c-11.434-0.973-21.788-1.852-24.283,5.815c5.49,2.014,8.473,6.297,9.657,12.408c1.215,6.269,0.425,14.497-1.476,24.176
		c-1.586,8.074-3.753,16.49-5.91,24.866c-1.868,7.254-3.728,14.477-5.219,21.604c-7.21,34.465,14.873,41.857,35.972,48.92
		c10.917,3.654,21.589,7.227,28.555,14.218c6.966-6.991,17.638-10.564,28.555-14.218c21.099-7.063,43.181-14.454,35.971-48.92
		c-1.491-7.127-3.351-14.35-5.219-21.604c-2.157-8.375-4.324-16.792-5.91-24.866c-1.901-9.679-2.691-17.907-1.476-24.176
		c1.185-6.111,4.167-10.393,9.657-12.408C163.364,34.551,153.009,35.43,141.575,36.403z"/>
</g>
</svg>
