<?xml version="1.0" encoding="utf-8"?>
<!-- Generator: Adobe Illustrator 17.0.0, SVG Export Plug-In . SVG Version: 6.00 Build 0)  -->
<!DOCTYPE svg PUBLIC "-//W3C//DTD SVG 1.1//EN" "http://www.w3.org/Graphics/SVG/1.1/DTD/svg11.dtd">
<svg version="1.1" id="_x31_" xmlns="http://www.w3.org/2000/svg" xmlns:xlink="http://www.w3.org/1999/xlink" x="0px" y="0px"
	 width="740.089px" height="213.095px" viewBox="0 0 740.089 213.095" enable-background="new 0 0 740.089 213.095"
	 xml:space="preserve">
<path fill-rule="evenodd" clip-rule="evenodd" fill="#A5204C" d="M241.589,122.21c-5.393,0-10.239-0.263-14.514-0.811
	c-4.297-0.526-8.419-1.579-12.388-3.157c-3.968-1.579-7.805-3.881-11.51-6.95c-3.618-2.982-6.687-6.402-9.209-10.283
	c-2.521-3.859-4.385-8.024-5.635-12.453c-1.249-4.429-1.863-9.055-1.863-13.835c0-8.66,1.886-16.071,5.679-22.232
	c3.771-6.161,9.011-10.787,15.698-13.878c6.709-3.091,14.317-4.648,22.824-4.648l16.071,1.447c1.754,0.351,3.113,0.504,4.078,0.504
	c2.368,0,4.297-1.008,5.766-3.004l4.604,24.315l-1.316,0.263c-2.543-5.394-6.292-9.516-11.269-12.388
	c-4.999-2.872-10.568-4.297-16.751-4.297c-6.271,0-11.62,1.337-16.093,4.013c-4.473,2.675-7.827,6.424-10.107,11.225
	c-2.258,4.802-3.398,10.348-3.398,16.597c0,5.503,0.877,10.853,2.609,16.049c1.732,5.196,4.253,9.888,7.586,14.054
	c3.333,4.165,7.345,7.454,12.037,9.844c4.714,2.39,9.932,3.596,15.676,3.596c4.275,0,7.433-0.548,9.472-1.644
	c2.061-1.096,3.354-2.675,3.902-4.736c0.548-2.061,0.811-5.043,0.811-8.901V80.114c0-4.758-0.46-8.463-1.403-11.138
	c-0.943-2.675-3.245-4.319-6.885-4.889v-1.184h29.467v1.184c-3.025,0.592-4.889,1.622-5.613,3.091
	c-0.724,1.469-1.096,3.946-1.096,7.41v34.992c0,3.705,0.372,6.402,1.096,8.047c0.723,1.666,2.587,2.828,5.613,3.53v1.053H241.589
	L241.589,122.21z M301.861,104.582c-1.403,3.946-2.083,7.06-2.083,9.34c0,2.017,0.702,3.661,2.105,4.955
	c1.425,1.294,3.113,2.017,5.108,2.149v1.184h-26.836v-1.184c1.71-0.351,3.048-0.811,4.012-1.359c0.965-0.57,1.908-1.535,2.828-2.85
	c1.82-2.587,3.793-6.665,5.941-12.234l21.158-55.93c1.294-3.464,1.951-6.007,1.951-7.608c0-2.324-1.359-3.727-4.078-4.209v-1.184
	h29.226v1.184c-2.543,0.679-3.815,2.258-3.815,4.736c0,1.315,0.395,3.026,1.184,5.13l22.473,64.722
	c0.066,0.132,0.439,1.009,1.096,2.631c0.68,1.623,1.272,2.828,1.798,3.596c0.504,0.767,1.184,1.447,1.995,2.017
	c0.833,0.548,1.864,1.009,3.135,1.359v1.184h-29.862v-1.184c4.297-0.965,6.446-4.034,6.446-9.23c0-3.004-0.877-6.161-2.675-9.428
	c-1.776-3.289-4.319-6.314-7.564-9.121c-3.267-2.806-7.126-5.087-11.576-6.841c-4.451-1.732-9.23-2.653-14.339-2.74L301.861,104.582
	L301.861,104.582z M323.435,45.517l-11.971,31.572c4.999,0,9.844,0.899,14.536,2.675c4.692,1.776,8.704,4.385,12.015,7.849
	L323.435,45.517L323.435,45.517z M389.955,44.706v60.249c0,3.355,0.153,6.051,0.46,8.09c0.285,2.039,1.052,3.815,2.28,5.35
	c1.228,1.513,3.179,2.39,5.81,2.631v1.184h-25.63v-1.184c2.609-0.373,4.539-1.249,5.788-2.675c1.25-1.403,2.017-3.048,2.302-4.911
	c0.307-1.864,0.46-4.385,0.46-7.542V52.862c0-4.824-0.483-8.551-1.469-11.248c-0.965-2.675-3.333-4.253-7.082-4.779v-1.184h33.26
	v1.184c-1.491,0.373-2.236,1.206-2.236,2.499c0,1.162,0.57,2.828,1.71,4.999l15.128,27.625l14.997-24.337
	c2.28-3.661,3.442-6.336,3.442-8.025c0-1.491-0.833-2.412-2.521-2.762v-1.184h31.703v1.184c-2.631,0.438-4.582,1.359-5.81,2.762
	c-1.228,1.425-1.995,3.048-2.28,4.911c-0.307,1.863-0.46,4.363-0.46,7.454v52.993c0,3.245,0.153,5.854,0.46,7.849
	c0.285,1.995,1.052,3.749,2.28,5.284c1.206,1.535,3.157,2.499,5.81,2.938v1.184h-31.572v-1.184c2.631-0.307,4.582-1.14,5.81-2.521
	c1.228-1.381,1.995-3.026,2.28-4.933c0.307-1.907,0.461-4.473,0.461-7.674V44.706l-28.809,46.744L389.955,44.706L389.955,44.706z
	 M526.108,35.651c3.705,0,7.038,0.219,9.997,0.636c2.96,0.417,5.569,1.447,7.805,3.091c2.258,1.644,3.377,4.122,3.377,7.454
	c0,2.346-0.614,4.517-1.842,6.49c-1.228,1.951-2.807,3.683-4.736,5.174c-1.929,1.491-4.188,2.916-6.753,4.297
	c-2.565,1.381-4.648,2.5-6.249,3.377c4.977,1.6,9.647,3.749,13.944,6.446c4.319,2.697,7.827,6.051,10.546,10.063
	c2.697,3.99,4.056,8.485,4.056,13.484c0,5.218-1.315,9.822-3.968,13.813c-2.653,3.968-6.358,6.862-11.16,8.66
	c-4.21,1.6-8.595,2.587-13.199,2.982c-4.582,0.395-10.283,0.592-17.102,0.592h-33.019v-1.184c2.631-0.373,4.56-1.249,5.788-2.675
	c1.206-1.403,1.973-3.048,2.28-4.933c0.285-1.886,0.46-4.385,0.504-7.52V52.862c-0.088-4.933-0.614-8.726-1.557-11.335
	c-0.965-2.609-3.289-4.166-7.016-4.692v-1.184H526.108L526.108,35.651z M500.851,70.116c4.209-1.228,8.616-2.741,13.199-4.582
	c4.583-1.842,8.66-4.144,12.234-6.95c3.574-2.806,5.372-5.898,5.372-9.252s-1.6-5.459-4.823-6.336
	c-3.223-0.877-7.148-1.315-11.752-1.315c-7.213,0-11.511,0.877-12.914,2.631c-0.877,1.162-1.315,3.924-1.315,8.287V70.116
	L500.851,70.116z M500.851,105.766c0,3.091,0.219,5.328,0.636,6.709c0.417,1.381,1.315,2.346,2.697,2.894
	c1.403,0.548,3.705,0.811,6.95,0.811c9.274,0,16.246-1.447,20.916-4.363c2.85-1.886,5.109-4.407,6.753-7.564
	c1.644-3.157,2.456-6.468,2.456-9.91c0-5.613-2.017-10.699-6.03-15.216c-4.034-4.538-8.857-7.981-14.492-10.327l-19.886,7.476
	V105.766L500.851,105.766z M588.309,104.955c0,3.245,0.154,5.854,0.461,7.871c0.285,2.017,1.074,3.793,2.324,5.328
	c1.25,1.557,3.157,2.499,5.766,2.872v1.184h-31.572v-1.184c2.631-0.329,4.582-1.184,5.81-2.609c1.228-1.403,1.995-3.069,2.28-4.933
	c0.307-1.885,0.46-4.429,0.46-7.586V52.862c0-4.824-0.482-8.551-1.469-11.248c-0.965-2.675-3.333-4.253-7.082-4.779v-1.184h31.572
	v1.184c-2.631,0.438-4.582,1.359-5.81,2.785c-1.228,1.425-1.995,3.069-2.28,4.933c-0.307,1.864-0.461,4.385-0.461,7.542V104.955
	L588.309,104.955z M647.375,105.13c0,3.508,0.154,6.293,0.46,8.376c0.285,2.083,1.052,3.837,2.28,5.262
	c1.228,1.425,3.179,2.17,5.81,2.258v1.184h-31.572v-1.184c3.793-0.109,6.161-1.381,7.125-3.859
	c0.943-2.455,1.425-6.227,1.425-11.269V42.491c-8.156,0-14.755,1.403-19.798,4.232c-5.021,2.806-8.77,7.367-11.247,13.659
	l-1.184-0.395l6.446-26.047c0.614,0.767,1.425,1.228,2.456,1.425c1.03,0.197,2.784,0.285,5.284,0.285h50.515
	c2.543,0,4.319-0.088,5.372-0.285c1.052-0.198,1.842-0.658,2.412-1.425l6.446,26.047l-1.184,0.395
	c-2.456-6.292-6.205-10.853-11.247-13.659c-5.021-2.828-11.62-4.232-19.798-4.232V105.13z"/>
<g>
	
		<path fill-rule="evenodd" clip-rule="evenodd" fill="none" stroke="#FFFFFF" stroke-width="1.5001" stroke-miterlimit="22.9256" d="
		M212.24,175.913h-4.022l-7.938-12.471h-1.86v12.471h-3.283v-27.048h7.507c5.499,0,8.246,2.426,8.246,7.273
		c0,4.44-2.402,6.861-7.199,7.273L212.24,175.913L212.24,175.913z M207.442,156.138c0-2.95-1.675-4.422-5.019-4.422h-4.003v8.985
		h4.003C205.767,160.701,207.442,159.18,207.442,156.138L207.442,156.138z M230.352,175.913h-14.756v-27.048h14.756v2.888h-11.474
		v8.012h10.704v2.833h-10.704v10.389h11.474V175.913L230.352,175.913z M251.544,168.357c0,2.39-0.794,4.373-2.383,5.937
		c-1.657,1.62-3.843,2.433-6.546,2.433c-2.716,0-4.896-0.788-6.528-2.365c-1.613-1.54-2.421-3.578-2.421-6.116h3.461
		c0,3.714,1.829,5.574,5.487,5.574c1.755,0,3.11-0.48,4.077-1.441c0.961-0.967,1.441-2.266,1.441-3.917
		c0-1.238-0.357-2.235-1.065-2.993c-0.795-0.831-2.408-1.823-4.847-2.981c-2.55-1.201-4.36-2.365-5.432-3.498
		c-1.14-1.213-1.712-2.648-1.712-4.311c0-1.841,0.64-3.381,1.928-4.619c1.386-1.336,3.233-2.002,5.543-2.002
		c2.235,0,4.077,0.579,5.518,1.731c1.503,1.225,2.254,2.851,2.254,4.871h-3.375c0-2.463-1.441-3.695-4.323-3.695
		c-2.765,0-4.151,1.195-4.151,3.591c0,1.139,0.376,2.069,1.133,2.777c0.758,0.708,2.26,1.589,4.514,2.636
		c2.894,1.342,4.871,2.623,5.931,3.843C251.045,164.963,251.544,166.478,251.544,168.357L251.544,168.357z M271.405,151.79h-7.415
		v24.123h-3.301V151.79h-7.415v-2.925h18.131V151.79L271.405,151.79z M294.075,175.913h-3.412l-3.313-7.507h-12.175l-3.313,7.507
		h-3.424l12.81-28.022L294.075,175.913L294.075,175.913z M286.106,165.61l-4.859-10.962l-4.829,10.962H286.106L286.106,165.61z
		 M316.351,166.965c0,2.851-0.862,5.167-2.58,6.947c-1.792,1.878-4.219,2.814-7.286,2.814c-3.073,0-5.5-0.936-7.292-2.814
		c-1.718-1.78-2.58-4.096-2.58-6.947v-18.1h3.283v18.1c0,1.94,0.548,3.529,1.644,4.767c1.189,1.349,2.839,2.02,4.945,2.02
		c2.1,0,3.757-0.671,4.958-2.02c1.096-1.238,1.644-2.827,1.644-4.767v-18.1h3.264V166.965L316.351,166.965z M339.68,175.913h-4.022
		l-7.938-12.471h-1.86v12.471h-3.283v-27.048h7.507c5.499,0,8.246,2.426,8.246,7.273c0,4.44-2.402,6.861-7.199,7.273L339.68,175.913
		L339.68,175.913z M334.882,156.138c0-2.95-1.675-4.422-5.019-4.422h-4.003v8.985h4.003
		C333.207,160.701,334.882,159.18,334.882,156.138L334.882,156.138z M369.758,175.913h-3.412l-3.313-7.507h-12.175l-3.313,7.507
		h-3.424l12.81-28.022L369.758,175.913L369.758,175.913z M361.789,165.61l-4.859-10.962l-4.828,10.962H361.789L361.789,165.61z
		 M395.47,176.911l-19.701-20.933v19.935h-3.196v-28.022l19.72,20.896v-19.942h3.178V176.911L395.47,176.911z M417.075,151.79
		h-7.415v24.123h-3.301V151.79h-7.415v-2.925h18.131V151.79L417.075,151.79z M460.763,175.913h-12.397v-27.048h3.283v24.123h9.115
		V175.913L460.763,175.913z M490.164,162.383c0,4.176-1.404,7.618-4.219,10.34c-2.759,2.667-6.171,4.003-10.248,4.003
		c-4.077,0-7.489-1.337-10.229-4.003c-2.802-2.722-4.206-6.165-4.206-10.34c0-4.176,1.404-7.618,4.206-10.34
		c2.741-2.654,6.152-3.984,10.229-3.984c4.077,0,7.489,1.33,10.248,3.984C488.76,154.764,490.164,158.207,490.164,162.383
		L490.164,162.383z M486.685,162.383c0-3.32-1.041-6.042-3.129-8.166c-2.088-2.125-4.712-3.184-7.859-3.184
		c-3.141,0-5.752,1.059-7.834,3.184c-2.081,2.125-3.122,4.847-3.122,8.166c0,3.295,1.041,6.017,3.129,8.154
		c2.088,2.143,4.699,3.215,7.828,3.215c3.135,0,5.752-1.072,7.846-3.215C485.638,168.4,486.685,165.677,486.685,162.383
		L486.685,162.383z M514.762,166.965c0,2.851-0.862,5.167-2.58,6.947c-1.792,1.878-4.219,2.814-7.286,2.814
		c-3.073,0-5.5-0.936-7.292-2.814c-1.718-1.78-2.58-4.096-2.58-6.947v-18.1h3.283v18.1c0,1.94,0.548,3.529,1.644,4.767
		c1.189,1.349,2.839,2.02,4.945,2.02c2.1,0,3.757-0.671,4.958-2.02c1.096-1.238,1.644-2.827,1.644-4.767v-18.1h3.264V166.965
		L514.762,166.965z M543.892,176.911l-19.701-20.933v19.935h-3.196v-28.022l19.72,20.896v-19.942h3.178V176.911L543.892,176.911z
		 M572.252,174.996c-2.981,1.127-5.771,1.693-8.357,1.693c-4.268,0-7.772-1.244-10.519-3.732c-2.901-2.611-4.348-6.121-4.348-10.537
		c0-4.33,1.349-7.809,4.052-10.426c2.697-2.624,6.307-3.935,10.814-3.935c2.168,0,4.952,0.683,8.357,2.057v3.59
		c-3.418-1.767-6.202-2.654-8.351-2.654c-3.332,0-6.042,0.967-8.123,2.907c-2.198,2.057-3.301,4.878-3.301,8.462
		c0,3.344,0.985,6.036,2.956,8.08c2.057,2.131,4.878,3.196,8.462,3.196c1.854,0,3.591-0.308,5.217-0.918v-8.357h-6.762v-3.03h9.903
		V174.996L572.252,174.996z M593.229,175.913h-14.756v-27.048h14.756v2.888h-11.473v8.012h10.704v2.833h-10.704v10.389h11.473
		V175.913L593.229,175.913z M628.893,175.913h-3.264v-13.315h-14.565v13.315h-3.282v-27.048h3.282v10.864h14.565v-10.864h3.264
		V175.913L628.893,175.913z M657.358,175.913h-3.412l-3.313-7.507h-12.175l-3.313,7.507h-3.424l12.81-28.022L657.358,175.913
		L657.358,175.913z M649.389,165.61l-4.859-10.962l-4.829,10.962H649.389L649.389,165.61z M672.675,175.913h-12.397v-27.048h3.283
		v24.123h9.115V175.913L672.675,175.913z M688.588,175.913h-12.397v-27.048h3.283v24.123h9.115V175.913z"/>
	<path fill-rule="evenodd" clip-rule="evenodd" fill="#A5204C" d="M644.545,168.406v-2.796h4.844l-4.844-10.928v-6.757
		l12.813,27.988h-3.412l-3.313-7.507H644.545L644.545,168.406z M672.675,175.913h-12.397v-27.048h3.283v24.123h9.115V175.913
		L672.675,175.913z M688.588,175.913h-12.397v-27.048h3.283v24.123h9.115V175.913z M644.545,147.925v6.757l-0.015-0.035
		l-4.829,10.962h4.844v2.796h-6.088l-3.313,7.507h-3.424l12.81-28.022L644.545,147.925L644.545,147.925z M475.713,176.726v-2.975
		c3.128-0.004,5.74-1.075,7.83-3.215c2.094-2.137,3.141-4.859,3.141-8.154c0-3.32-1.041-6.042-3.129-8.166
		c-2.085-2.122-4.703-3.181-7.843-3.184v-2.974c4.07,0.003,7.477,1.333,10.232,3.984c2.815,2.722,4.219,6.165,4.219,10.34
		c0,4.176-1.404,7.618-4.219,10.34C483.19,175.386,479.784,176.723,475.713,176.726L475.713,176.726z M514.762,166.965
		c0,2.851-0.862,5.167-2.58,6.947c-1.792,1.878-4.219,2.814-7.286,2.814c-3.073,0-5.5-0.936-7.292-2.814
		c-1.718-1.78-2.58-4.096-2.58-6.947v-18.1h3.283v18.1c0,1.94,0.548,3.529,1.644,4.767c1.189,1.349,2.839,2.02,4.945,2.02
		c2.1,0,3.757-0.671,4.958-2.02c1.096-1.238,1.644-2.827,1.644-4.767v-18.1h3.264V166.965L514.762,166.965z M543.892,176.911
		l-19.701-20.933v19.935h-3.196v-28.022l19.72,20.896v-19.942h3.178V176.911L543.892,176.911z M572.252,174.996
		c-2.981,1.127-5.771,1.693-8.357,1.693c-4.268,0-7.772-1.244-10.519-3.732c-2.901-2.611-4.348-6.121-4.348-10.537
		c0-4.33,1.349-7.809,4.052-10.426c2.697-2.624,6.307-3.935,10.814-3.935c2.168,0,4.952,0.683,8.357,2.057v3.59
		c-3.418-1.767-6.202-2.654-8.351-2.654c-3.332,0-6.042,0.967-8.123,2.907c-2.198,2.057-3.301,4.878-3.301,8.462
		c0,3.344,0.985,6.036,2.956,8.08c2.057,2.131,4.878,3.196,8.462,3.196c1.854,0,3.591-0.308,5.217-0.918v-8.357h-6.762v-3.03h9.903
		V174.996L572.252,174.996z M593.229,175.913h-14.756v-27.048h14.756v2.888h-11.473v8.012h10.704v2.833h-10.704v10.389h11.473
		V175.913L593.229,175.913z M628.893,175.913h-3.264v-13.315h-14.565v13.315h-3.282v-27.048h3.282v10.864h14.565v-10.864h3.264
		V175.913z M475.713,148.058v2.974h-0.016c-3.141,0-5.752,1.059-7.834,3.184c-2.081,2.125-3.122,4.847-3.122,8.166
		c0,3.295,1.041,6.017,3.129,8.154c2.088,2.143,4.699,3.215,7.828,3.215h0.016v2.975h-0.016c-4.077,0-7.489-1.337-10.229-4.003
		c-2.802-2.722-4.206-6.165-4.206-10.34c0-4.176,1.404-7.618,4.206-10.34c2.741-2.654,6.152-3.984,10.229-3.984H475.713
		L475.713,148.058z M356.945,168.406v-2.796h4.844l-4.844-10.928v-6.757l12.813,27.988h-3.412l-3.313-7.507H356.945L356.945,168.406
		z M395.47,176.911l-19.701-20.933v19.935h-3.196v-28.022l19.72,20.896v-19.942h3.178V176.911L395.47,176.911z M417.075,151.79
		h-7.415v24.123h-3.301V151.79h-7.415v-2.925h18.131V151.79L417.075,151.79z M460.763,175.913h-12.397v-27.048h3.283v24.123h9.115
		V175.913z M356.945,147.925v6.757l-0.015-0.035l-4.828,10.962h4.844v2.796h-6.088l-3.313,7.507h-3.424l12.81-28.022
		L356.945,147.925L356.945,147.925z M330.371,167.608v-6.919c3.005-0.15,4.511-1.667,4.511-4.551c0-2.796-1.506-4.264-4.511-4.41
		v-2.861c5.308,0.084,7.96,2.509,7.96,7.271c0,4.44-2.402,6.861-7.199,7.273l8.548,12.502h-4.022L330.371,167.608z M330.371,148.867
		v2.861c-0.165-0.008-0.334-0.012-0.508-0.012h-4.003v8.985h4.003c0.174,0,0.343-0.004,0.508-0.012v6.919l-2.651-4.166h-1.86v12.471
		h-3.283v-27.048h7.507L330.371,148.867L330.371,148.867z M281.262,168.406v-2.796h4.844l-4.844-10.928v-6.757l12.813,27.988h-3.412
		l-3.313-7.507H281.262L281.262,168.406z M316.351,166.965c0,2.851-0.862,5.167-2.58,6.947c-1.792,1.878-4.219,2.814-7.286,2.814
		c-3.073,0-5.5-0.936-7.292-2.814c-1.718-1.78-2.58-4.096-2.58-6.947v-18.1h3.283v18.1c0,1.94,0.548,3.529,1.644,4.767
		c1.189,1.349,2.839,2.02,4.945,2.02c2.1,0,3.757-0.671,4.958-2.02c1.096-1.238,1.644-2.827,1.644-4.767v-18.1h3.264V166.965z
		 M281.262,147.925v6.757l-0.015-0.035l-4.829,10.962h4.844v2.796h-6.088l-3.313,7.507h-1.94v-3.247l11.326-24.775L281.262,147.925
		L281.262,147.925z M269.921,151.79v-2.925h1.484v2.925H269.921z M212.24,175.913h-4.022l-5.287-8.306v-6.919
		c3.005-0.15,4.511-1.667,4.511-4.551c0-2.796-1.506-4.264-4.511-4.41v-2.861c5.308,0.084,7.96,2.509,7.96,7.271
		c0,4.44-2.402,6.861-7.199,7.273L212.24,175.913L212.24,175.913z M269.921,148.865v2.925h-5.931v24.123h-3.301V151.79h-7.415
		v-2.925H269.921L269.921,148.865z M269.921,172.666v3.247h-1.484L269.921,172.666L269.921,172.666z M230.352,175.913h-14.756
		v-27.048h14.756v2.888h-11.474v8.012h10.704v2.833h-10.704v10.389h11.474V175.913L230.352,175.913z M251.544,168.357
		c0,2.39-0.794,4.373-2.383,5.937c-1.657,1.62-3.843,2.433-6.546,2.433c-2.716,0-4.896-0.788-6.528-2.365
		c-1.613-1.54-2.421-3.578-2.421-6.116h3.461c0,3.714,1.829,5.574,5.487,5.574c1.755,0,3.11-0.48,4.077-1.441
		c0.961-0.967,1.441-2.266,1.441-3.917c0-1.238-0.357-2.235-1.065-2.993c-0.795-0.831-2.408-1.823-4.847-2.981
		c-2.55-1.201-4.36-2.365-5.432-3.498c-1.14-1.213-1.712-2.648-1.712-4.311c0-1.841,0.64-3.381,1.928-4.619
		c1.386-1.336,3.233-2.002,5.543-2.002c2.235,0,4.077,0.579,5.518,1.731c1.503,1.225,2.254,2.851,2.254,4.871h-3.375
		c0-2.463-1.441-3.695-4.323-3.695c-2.765,0-4.151,1.195-4.151,3.591c0,1.139,0.376,2.069,1.133,2.777
		c0.758,0.708,2.26,1.589,4.514,2.636c2.894,1.342,4.871,2.623,5.931,3.843C251.045,164.963,251.544,166.478,251.544,168.357z
		 M202.931,167.608l-2.652-4.166h-1.86v12.471h-3.283v-27.048h7.507l0.286,0.002v2.861c-0.165-0.008-0.334-0.012-0.508-0.012h-4.003
		v8.985h4.003c0.174,0,0.343-0.004,0.508-0.012V167.608z"/>
</g>
<path fill-rule="evenodd" clip-rule="evenodd" fill="#A5204C" d="M428.38,167.059c2.565,0,4.657-2.092,4.657-4.658
	c0-2.565-2.092-4.657-4.657-4.657c-2.565,0-4.658,2.092-4.658,4.657C423.722,164.966,425.815,167.059,428.38,167.059z"/>
<g>
	<path fill-rule="evenodd" clip-rule="evenodd" fill="#A5204C" d="M117.019,147.891c-5.198,0-9.868-0.254-13.988-0.782
		c-4.141-0.507-8.114-1.521-11.938-3.043c-3.825-1.521-7.522-3.74-11.093-6.698c-3.486-2.874-6.445-6.17-8.874-9.91
		c-2.43-3.719-4.226-7.733-5.43-12.002c-1.204-4.268-1.796-8.727-1.796-13.333c0-8.346,1.817-15.488,5.473-21.425
		c3.634-5.937,8.684-10.396,15.129-13.375c6.466-2.979,13.798-4.479,21.996-4.479l15.488,1.394c1.69,0.338,3,0.486,3.93,0.486
		c2.282,0,4.142-0.972,5.557-2.895l4.437,23.433l-1.268,0.254c-2.451-5.198-6.064-9.17-10.861-11.938
		c-4.818-2.768-10.184-4.141-16.143-4.141c-6.043,0-11.199,1.289-15.509,3.867c-4.31,2.578-7.543,6.191-9.741,10.818
		c-2.176,4.627-3.275,9.973-3.275,15.995c0,5.304,0.845,10.459,2.514,15.467c1.669,5.008,4.099,9.529,7.311,13.544
		c3.212,4.015,7.078,7.184,11.6,9.487c4.543,2.303,9.572,3.465,15.108,3.465c4.12,0,7.163-0.528,9.128-1.585
		c1.986-1.057,3.233-2.578,3.761-4.564c0.528-1.986,0.782-4.86,0.782-8.579v-20.031c0-4.585-0.444-8.156-1.352-10.734
		c-0.908-2.578-3.127-4.163-6.635-4.712v-1.141h28.398v1.141c-2.916,0.57-4.712,1.564-5.409,2.979
		c-0.697,1.416-1.057,3.803-1.057,7.142v33.723c0,3.571,0.359,6.17,1.057,7.755c0.697,1.606,2.493,2.726,5.409,3.402v1.014H117.019z
		"/>
	<path fill-rule="evenodd" clip-rule="evenodd" fill="#A5204C" d="M106.398,20.821c5.513,13.49,20.925,12.179,34.799,10.999
		c14.581-1.241,27.682-2.355,29.639,11.67l0.289,2.073l-2.041,0.479c-4.847,1.138-7.402,4.441-8.373,9.445
		c-1.088,5.613-0.321,13.285,1.476,22.433c1.609,8.191,3.728,16.423,5.838,24.614c1.901,7.384,3.795,14.737,5.273,21.802
		c8.044,38.453-16.018,46.507-39.008,54.203c-11.249,3.765-22.222,7.438-28.22,14.705l-0.697,0.845l-1.086,1.543l-1.102-1.543
		l-0.697-0.845c-5.997-7.267-16.971-10.94-28.22-14.705c-22.99-7.695-47.052-15.75-39.008-54.203
		c1.478-7.065,3.371-14.417,5.273-21.802c2.109-8.191,4.229-16.423,5.838-24.614c1.797-9.148,2.564-16.82,1.476-22.433
		c-0.97-5.005-3.525-8.308-8.373-9.445l-2.041-0.479l0.289-2.073c1.956-14.026,15.057-12.911,29.639-11.67
		c13.875,1.181,29.286,2.492,34.799-10.999l2.121-5.189L106.398,20.821L106.398,20.821z M141.575,36.403
		c-14.039,1.194-29.489,2.508-37.297-9.728c-7.808,12.236-23.258,10.923-37.297,9.728c-11.434-0.973-21.788-1.852-24.283,5.815
		c5.49,2.014,8.473,6.297,9.657,12.408c1.215,6.269,0.425,14.497-1.476,24.176c-1.586,8.074-3.753,16.49-5.91,24.866
		c-1.868,7.254-3.728,14.477-5.219,21.604c-7.21,34.465,14.873,41.857,35.972,48.92c10.917,3.654,21.589,7.227,28.555,14.218
		c6.966-6.991,17.638-10.564,28.555-14.218c21.099-7.063,43.181-14.454,35.971-48.92c-1.491-7.127-3.351-14.35-5.219-21.604
		c-2.157-8.375-4.324-16.792-5.91-24.866c-1.901-9.679-2.691-17.907-1.476-24.176c1.185-6.111,4.167-10.393,9.657-12.408
		C163.364,34.551,153.009,35.43,141.575,36.403z"/>
</g>
</svg>
