<?xml version="1.0" encoding="utf-8"?>
<!-- Generator: Adobe Illustrator 17.0.0, SVG Export Plug-In . SVG Version: 6.00 Build 0)  -->
<!DOCTYPE svg PUBLIC "-//W3C//DTD SVG 1.1//EN" "http://www.w3.org/Graphics/SVG/1.1/DTD/svg11.dtd">
<svg version="1.1" id="Слой_1" xmlns="http://www.w3.org/2000/svg" xmlns:xlink="http://www.w3.org/1999/xlink" x="0px" y="0px"
	 width="50px" height="50.009px" viewBox="0 0 50 50.009" enable-background="new 0 0 50 50.009" xml:space="preserve">
<g>
	<path fill="#3D3D3D" d="M33.493,20.547c-0.256,0.157-0.595,0.078-0.75-0.178c-0.162-0.251-0.084-0.589,0.172-0.75l8.751-5.469
		c0.256-0.161,0.589-0.084,0.752,0.172c0.055,0.09,0.083,0.189,0.083,0.289v20.786c0,0.205-0.111,0.383-0.284,0.479l-9.809,6.543
		c-0.161,0.106-0.362,0.117-0.529,0.038L17.938,36.02l-9.585,6.393c-0.251,0.172-0.595,0.099-0.757-0.151
		c-0.071-0.106-0.099-0.234-0.094-0.351L7.512,21.32c0-0.201,0.106-0.379,0.266-0.473l7.644-4.518
		c0.262-0.15,0.595-0.067,0.752,0.19c0.15,0.262,0.067,0.596-0.195,0.75l-7.382,4.364L8.592,40.939l8.996-5.998v0.006
		c0.151-0.107,0.351-0.128,0.529-0.046l13.942,6.438l9.347-6.232V15.597L33.493,20.547z"/>
	<path fill="#3D3D3D" d="M24.997,7.501c2.115,0,4.028,0.858,5.414,2.242h0.006c1.385,1.386,2.242,3.305,2.242,5.42
		c0,2.142-1.202,4.69-2.715,7.083c-1.491,2.358-3.277,4.562-4.523,6.08c-0.19,0.234-0.534,0.267-0.768,0.078
		c-0.044-0.034-0.078-0.073-0.106-0.117c-1.252-1.525-3.027-3.723-4.496-6.047c-1.518-2.393-2.709-4.941-2.709-7.083
		c0-2.113,0.858-4.028,2.242-5.414C20.97,8.359,22.884,7.501,24.997,7.501L24.997,7.501z M29.643,10.516
		c-1.191-1.185-2.832-1.919-4.646-1.919c-1.807,0-3.45,0.734-4.64,1.919c-1.185,1.191-1.924,2.832-1.924,4.64
		c0,1.908,1.124,4.255,2.542,6.503c1.29,2.043,2.832,3.995,4.022,5.458c1.196-1.469,2.738-3.421,4.028-5.458
		c1.418-2.241,2.538-4.595,2.538-6.503C31.563,13.348,30.828,11.707,29.643,10.516L29.643,10.516z"/>
	<path fill="#3D3D3D" d="M24.997,11.879c0.907,0,1.73,0.368,2.32,0.957v0.006c0.596,0.595,0.963,1.413,0.963,2.32
		c0,0.902-0.368,1.725-0.963,2.314v0.006c-0.595,0.596-1.413,0.963-2.32,0.963c-0.907,0-1.725-0.368-2.32-0.963
		c-0.596-0.595-0.963-1.418-0.963-2.32c0-0.907,0.368-1.725,0.963-2.32v-0.006C23.273,12.246,24.09,11.879,24.997,11.879
		L24.997,11.879z M26.55,13.61l-0.006,0.006c-0.395-0.4-0.94-0.645-1.547-0.645c-0.601,0-1.151,0.245-1.547,0.645V13.61
		c-0.395,0.4-0.64,0.946-0.64,1.553c0,0.601,0.245,1.151,0.64,1.547c0.396,0.395,0.946,0.64,1.547,0.64
		c0.607,0,1.152-0.245,1.547-0.64h0.006c0.395-0.396,0.634-0.946,0.634-1.547C27.19,14.555,26.945,14.004,26.55,13.61L26.55,13.61z"
		/>
	<path fill="#3D3D3D" d="M32.653,41.961c0,0.3-0.245,0.545-0.545,0.545c-0.3,0-0.544-0.245-0.544-0.545l0.004-19.689
		c0-0.3,0.245-0.545,0.545-0.545c0.3,0,0.545,0.245,0.545,0.545L32.653,41.961z"/>
	<path fill="#3D3D3D" d="M18.433,35.157c0,0.3-0.245,0.545-0.545,0.545s-0.545-0.245-0.545-0.545V22.266
		c0-0.3,0.245-0.54,0.545-0.54s0.545,0.239,0.545,0.54V35.157z"/>
</g>
</svg>
