<?xml version="1.0" encoding="utf-8"?>
<!-- Generator: Adobe Illustrator 17.0.0, SVG Export Plug-In . SVG Version: 6.00 Build 0)  -->
<!DOCTYPE svg PUBLIC "-//W3C//DTD SVG 1.1//EN" "http://www.w3.org/Graphics/SVG/1.1/DTD/svg11.dtd">
<svg version="1.1" id="Слой_1" xmlns="http://www.w3.org/2000/svg" xmlns:xlink="http://www.w3.org/1999/xlink" x="0px" y="0px"
	 width="50px" height="50px" viewBox="0 0 50 50" enable-background="new 0 0 50 50" xml:space="preserve">
<g id="phone">
	<g>
		<path fill="#3D3D3D" d="M10.906,36.355c-0.586-0.586-1.126-1.291-1.602-2.093c-0.375-0.63-0.211-1.524,0.486-2.655
			c1.212-1.971,4.071-4.617,6.288-4.466c0.922,0.064,1.827,0.534,2.691,1.396c0.625,0.625,1.137,1.365,1.514,1.996
			c0.115,0.192,0.177,0.393,0.363,0.421c0.135,0.02,0.328-0.264,0.328-0.264l10.468-10.401c0,0,0.059-0.087,0.052-0.134
			c-0.01-0.074-0.05-0.076-0.12-0.117c-0.648-0.375-1.486-0.935-2.199-1.649c-0.867-0.868-1.371-1.783-1.497-2.72
			c-0.295-2.191,2.102-4.878,3.897-6.087c1.342-0.903,2.465-1.143,3.249-0.694c0.687,0.393,1.298,0.856,1.818,1.377
			c4.04,4.039,1.782,10.517,0.549,12.295c-1.076,1.551-3.332,4.601-6.364,7.615c-2.868,2.85-6.339,5.54-7.888,6.538
			C20.302,38.414,14.803,40.253,10.906,36.355z M17.824,29.482c-0.629-0.629-1.247-0.969-1.838-1.009
			c-1.333-0.092-3.543,1.685-4.771,3.401c-0.773,1.081-0.809,1.531-0.761,1.708c0.216,0.789,0.888,1.319,1.397,1.827
			c4.057,4.058,9.729,0.59,10.362,0.182c1.456-0.939,4.902-3.612,7.671-6.363c2.957-2.937,5.159-5.916,6.208-7.43
			c1.228-1.771,2.859-7.333-0.396-10.587c-0.436-0.437-0.953-0.828-1.537-1.163c-0.192-0.11-0.839-0.029-1.839,0.645
			c-1.72,1.156-3.507,3.412-3.32,4.8c0.086,0.641,0.462,1.297,1.118,1.953c1.182,1.182,2.836,1.913,2.853,1.92l0.382,0.166
			c0,0,0.284,0.114,0.31,0.253c0.021,0.112-0.116,0.296-0.116,0.296l-13.05,12.964c0,0-0.09,0.161-0.309,0.134
			c-0.125-0.015-0.218-0.273-0.218-0.273l-0.189-0.444C19.774,32.445,19.014,30.673,17.824,29.482z"/>
	</g>
</g>
</svg>
