<?xml version="1.0" encoding="utf-8"?>
<!-- Generator: Adobe Illustrator 17.0.0, SVG Export Plug-In . SVG Version: 6.00 Build 0)  -->
<!DOCTYPE svg PUBLIC "-//W3C//DTD SVG 1.1//EN" "http://www.w3.org/Graphics/SVG/1.1/DTD/svg11.dtd">
<svg version="1.1" id="Слой_1" xmlns="http://www.w3.org/2000/svg" xmlns:xlink="http://www.w3.org/1999/xlink" x="0px" y="0px"
	 width="100px" height="100px" viewBox="-2.825 -8.568 100 100" enable-background="new -2.825 -8.568 100 100"
	 xml:space="preserve">
<g>
	
		<ellipse fill="none" stroke="#FFFFFF" stroke-width="2.8125" stroke-miterlimit="10" cx="44.517" cy="66.721" rx="0.474" ry="0.46"/>
	<g>
		
			<ellipse fill="none" stroke="#FFFFFF" stroke-width="2.8125" stroke-miterlimit="10" cx="36.556" cy="20.581" rx="0.474" ry="0.46"/>
		
			<ellipse fill="none" stroke="#FFFFFF" stroke-width="2.8125" stroke-miterlimit="10" cx="65.313" cy="50.758" rx="0.475" ry="0.46"/>
		
			<ellipse fill="none" stroke="#FFFFFF" stroke-width="2.8125" stroke-miterlimit="10" cx="21.476" cy="28.786" rx="0.474" ry="0.46"/>
		
			<ellipse fill="none" stroke="#FFFFFF" stroke-width="2.8125" stroke-miterlimit="10" cx="51.357" cy="53.074" rx="0.474" ry="0.46"/>
		
			<ellipse fill="none" stroke="#FFFFFF" stroke-width="2.8125" stroke-miterlimit="10" cx="46.151" cy="31.516" rx="0.475" ry="0.46"/>
		
			<ellipse fill="none" stroke="#FFFFFF" stroke-width="2.8125" stroke-miterlimit="10" cx="27.141" cy="56.367" rx="0.474" ry="0.46"/>
		
			<ellipse fill="none" stroke="#FFFFFF" stroke-width="2.8125" stroke-miterlimit="10" cx="36.081" cy="40.64" rx="0.475" ry="0.461"/>
		
			<ellipse fill="none" stroke="#FFFFFF" stroke-width="2.8125" stroke-miterlimit="10" cx="20.527" cy="39.778" rx="0.474" ry="0.46"/>
		
			<line fill="none" stroke="#FFFFFF" stroke-width="2.8125" stroke-miterlimit="10" x1="52.616" y1="18.071" x2="50.097" y2="22.171"/>
		
			<line fill="none" stroke="#FFFFFF" stroke-width="2.8125" stroke-miterlimit="10" x1="37.03" y1="59.922" x2="40.315" y2="63.474"/>
		
			<line fill="none" stroke="#FFFFFF" stroke-width="2.8125" stroke-miterlimit="10" x1="38.673" y1="48.52" x2="41.958" y2="52.075"/>
		
			<line fill="none" stroke="#FFFFFF" stroke-width="2.8125" stroke-miterlimit="10" x1="59.127" y1="57.766" x2="63.112" y2="54.965"/>
		
			<line fill="none" stroke="#FFFFFF" stroke-width="2.8125" stroke-miterlimit="10" x1="28.679" y1="23.384" x2="31.964" y2="26.938"/>
		
			<line fill="none" stroke="#FFFFFF" stroke-width="2.8125" stroke-miterlimit="10" x1="22.837" y1="48.371" x2="27.209" y2="46.175"/>
		<g>
			<path fill="none" stroke="#FFFFFF" stroke-width="2.8125" stroke-miterlimit="10" d="M84.084,39.778"/>
			<g>
				<path fill="none" stroke="#FFFFFF" stroke-width="2.8125" stroke-miterlimit="10" d="M79.109,39.883
					c-1.546,0.033-2.755,0.372-2.686,0.754s-0.1,1.939-0.377,3.461l-0.994,5.465c-0.277,1.522-1.151,3.854-1.942,5.183l-2.884,4.843
					c-0.791,1.329-2.421,3.215-3.621,4.191l-4.462,3.628c-1.2,0.976-3.376,2.195-4.834,2.71l-5.526,1.949
					c-1.459,0.515-3.918,0.936-5.465,0.936H40.42c-1.547,0-4.006-0.421-5.465-0.936l-5.524-1.949
					c-1.459-0.515-3.634-1.734-4.834-2.71l-4.463-3.629c-1.2-0.976-2.829-2.862-3.621-4.191l-2.883-4.843
					c-0.791-1.329-1.665-3.662-1.942-5.184l-0.995-5.465c-0.277-1.522-0.277-4.012,0-5.534l0.995-5.466
					c0.277-1.522,1.151-3.854,1.942-5.183l2.882-4.842c0.791-1.329,2.42-3.215,3.62-4.191l4.464-3.631
					c1.2-0.976,3.375-2.196,4.834-2.71l5.524-1.949c1.459-0.515,3.918-0.936,5.465-0.936h5.898c1.547,0,4.006,0.421,5.465,0.936
					l5.526,1.949c1.459,0.515,3.634,1.734,4.834,2.711l3.212,2.613c1.2,0.976,3.137,0.945,4.304-0.07l1.545-1.343
					c1.168-1.015,1.141-2.643-0.059-3.619L66.051,8.69c-1.2-0.976-3.375-2.196-4.834-2.71l-8.076-2.85
					c-1.459-0.515-3.918-0.936-5.464-0.936h-8.614c-1.547,0-4.006,0.421-5.464,0.936l-8.076,2.85
					c-1.459,0.515-3.634,1.734-4.834,2.71l-6.544,5.322c-1.2,0.976-2.829,2.862-3.621,4.191l-4.24,7.12
					c-0.791,1.329-1.665,3.662-1.942,5.183l-1.466,8.058c-0.277,1.522-0.277,4.012,0,5.534l1.466,8.056
					c0.277,1.522,1.151,3.854,1.942,5.183l4.24,7.122c0.791,1.329,2.421,3.215,3.621,4.191l6.544,5.321
					c1.2,0.976,3.376,2.195,4.834,2.71l8.075,2.849c1.459,0.515,3.918,0.936,5.465,0.936h8.614c1.547,0,4.006-0.421,5.465-0.936
					l8.076-2.849c1.459-0.515,3.634-1.734,4.834-2.71l6.543-5.321c1.2-0.976,2.829-2.862,3.621-4.191l4.241-7.122
					c0.791-1.329,1.665-3.661,1.942-5.183l1.465-8.056c0.277-1.522,0.44-3.116,0.362-3.544c-0.078-0.427-1.407-0.75-2.953-0.717
					L79.109,39.883z"/>
			</g>
			<g>
				<path fill="none" stroke="#FFFFFF" stroke-width="2.8125" stroke-miterlimit="10" d="M65.414,21.485
					c1.168-1.015,1.141-2.643-0.059-3.62l-3.212-2.613c-1.2-0.976-3.375-2.196-4.834-2.711l-5.526-1.949
					c-1.459-0.515-3.918-0.936-5.465-0.936H40.42c-1.547,0-4.006,0.421-5.465,0.936l-5.524,1.949
					c-1.459,0.515-3.634,1.734-4.834,2.71l-4.464,3.631c-1.2,0.976-2.829,2.862-3.62,4.191l-2.882,4.842
					c-0.791,1.329-1.665,3.662-1.942,5.183l-0.995,5.466c-0.277,1.522-0.277,4.012,0,5.534l0.995,5.465
					c0.277,1.522,1.151,3.854,1.942,5.184l2.883,4.843c0.791,1.329,2.42,3.215,3.621,4.191l4.463,3.629
					c1.2,0.976,3.376,2.195,4.834,2.71l5.524,1.949c1.459,0.515,3.918,0.936,5.465,0.936h5.898c1.547,0,4.006-0.421,5.465-0.936
					l5.526-1.949c1.459-0.515,3.634-1.734,4.834-2.71l4.462-3.628c1.2-0.976,2.829-2.862,3.621-4.191l2.884-4.843
					c0.791-1.329,1.665-3.662,1.942-5.183l0.994-5.465c0.277-1.522,0.447-3.079,0.377-3.461s-1.391-0.667-2.938-0.635l-27.304,0.578
					c-1.546,0.033-1.856-0.771-0.689-1.785L65.414,21.485z"/>
			</g>
			<g>
				<path fill="none" stroke="#FFFFFF" stroke-width="2.8125" stroke-miterlimit="10" d="M70.657,16.929c0,0-0.702,0.61-1.56,1.355
					c-0.858,0.745-2.515,2.185-3.683,3.2L45.492,38.796c-1.168,1.015-0.858,1.818,0.689,1.785l27.304-0.578
					c1.546-0.033,3.814-0.081,5.04-0.107c1.225-0.026,2.228-0.047,2.228-0.047"/>
			</g>
		</g>
		<g>
			<path fill="none" stroke="#FFFFFF" stroke-width="2.8125" stroke-miterlimit="10" d="M70.024,31.159
				c-0.212,0.151-0.508,0.105-0.662-0.101s-0.106-0.493,0.106-0.641c0.211-0.151,0.508-0.105,0.663,0.102
				C70.283,30.724,70.236,31.012,70.024,31.159z"/>
			
				<line fill="none" stroke="#FFFFFF" stroke-width="2.8125" stroke-miterlimit="10" x1="77.037" y1="25.591" x2="75.996" y2="30.253"/>
			<g>
				<g>
					<g>
						<path fill="none" stroke="#FFFFFF" stroke-width="2.8125" stroke-miterlimit="10" d="M84.791,35.605l-27.277,0.707
							c-1.546,0.04-1.858-0.759-0.693-1.777L77.15,16.786"/>
					</g>
					<g>
						<path fill="none" stroke="#FFFFFF" stroke-width="2.8125" stroke-miterlimit="10" d="M81.757,24.583
							c0.806,1.32,1.691,3.646,1.967,5.168l0.565,3.118c0.276,1.522,1.767,2.734,3.313,2.694l1.958-0.051
							c1.546-0.04,2.586-1.319,2.31-2.841l-0.988-5.446c-0.276-1.522-1.159-3.849-1.962-5.171l-4.713-7.759
							c-0.803-1.322-2.413-1.571-3.578-0.554l-1.462,1.277c-1.165,1.017-1.459,2.93-0.653,4.25L81.757,24.583z"/>
					</g>
				</g>
			</g>
			
				<line fill="none" stroke="#FFFFFF" stroke-width="2.8125" stroke-miterlimit="10" x1="77.15" y1="16.786" x2="78.947" y2="15.209"/>
			
				<line fill="none" stroke="#FFFFFF" stroke-width="2.8125" stroke-miterlimit="10" x1="84.71" y1="35.607" x2="87.058" y2="35.576"/>
		</g>
	</g>
</g>
</svg>
