<?xml version="1.0" encoding="utf-8"?>
<!-- Generator: Adobe Illustrator 17.0.0, SVG Export Plug-In . SVG Version: 6.00 Build 0)  -->
<!DOCTYPE svg PUBLIC "-//W3C//DTD SVG 1.1//EN" "http://www.w3.org/Graphics/SVG/1.1/DTD/svg11.dtd">
<svg version="1.1" id="Слой_1" xmlns="http://www.w3.org/2000/svg" xmlns:xlink="http://www.w3.org/1999/xlink" x="0px" y="0px"
	 width="50px" height="50px" viewBox="0 0 50 50" enable-background="new 0 0 50 50" xml:space="preserve">
<g id="comment-star">
	<path fill="#3D3D3D" d="M42.281,22.624c0-8.747-7.738-15.838-17.284-15.838S7.713,13.877,7.713,22.624
		c0,8.746,7.738,15.839,17.284,15.839c0.297,0,0.592-0.008,0.886-0.023c0.196-0.01,0.372-0.059,0.55,0.02
		c0.184,0.082,0.29,0.26,0.432,0.418c0.839,0.933,2.033,1.815,3.747,2.437c0.951,0.345,1.831,0.471,2.61,0.471
		c1.468,0,2.576-0.456,3.141-0.74c0.189-0.095,0.265-0.108,0.249-0.226c-0.015-0.109,0.003-0.068-0.243-0.185
		c-0.625-0.297-1.818-0.986-2.422-2.146c-0.268-0.516-0.489-1.002-0.674-1.459c-0.058-0.143-0.138-0.269-0.083-0.405
		c0.085-0.213,0.331-0.221,0.532-0.329C38.842,33.547,42.281,28.454,42.281,22.624z M32.527,35.413c0,0-0.887,0.246-0.999,0.526
		c-0.112,0.28,0.335,1.134,0.335,1.134c0.252,0.678,0.557,1.361,0.904,2.03c0.269,0.517,0.616,0.956,0.988,1.326
		c-0.17,0.016-0.348,0.025-0.533,0.025c-0.713,0-1.439-0.132-2.156-0.392c-1.51-0.547-2.702-1.379-3.541-2.472
		c0,0-0.298-0.438-0.463-0.511c-0.165-0.073-0.695-0.005-0.695-0.005c-0.5,0.039-0.948,0.057-1.371,0.057
		c-8.796,0-15.953-6.508-15.953-14.508c0-7.999,7.156-14.507,15.953-14.507c8.796,0,15.953,6.508,15.953,14.507
		C40.95,27.976,37.722,32.877,32.527,35.413z"/>
	<path fill="#3D3D3D" d="M25.065,15.027l1.68,4.379l0.297,0.775l0.829,0.04l4.54,0.224l-3.717,3.003l-0.665,0.537l0.245,0.819
		l1.223,4.082l0.045,0.151l-0.173-0.108l-3.631-2.263l-0.673-0.42l-0.673,0.42l-3.804,2.371l1.268-4.233l0.245-0.819l-0.665-0.537
		l-3.717-3.003l4.54-0.224l0.829-0.04l0.297-0.775L25.065,15.027 M25.065,12.128c-0.139,0-0.278,0.068-0.33,0.205l-2.539,6.617
		l-6.948,0.343c-0.147,0.007-0.274,0.104-0.319,0.244c-0.045,0.139,0,0.292,0.114,0.385l5.593,4.517l-1.966,6.565
		c-0.042,0.141,0.007,0.293,0.124,0.382c0.063,0.048,0.139,0.073,0.215,0.073c0.065,0,0.13-0.017,0.187-0.053l5.87-3.659l5.87,3.659
		c0.057,0.035,0.123,0.053,0.187,0.053c0.076,0,0.152-0.024,0.215-0.073c0.117-0.089,0.167-0.242,0.124-0.382l-1.966-6.565
		l5.593-4.517c0.114-0.093,0.16-0.246,0.114-0.385c-0.045-0.14-0.172-0.237-0.319-0.244l-6.949-0.343l-2.539-6.617
		C25.343,12.196,25.205,12.128,25.065,12.128L25.065,12.128z"/>
</g>
</svg>
