<?xml version="1.0" encoding="utf-8"?>
<!-- Generator: Adobe Illustrator 17.0.0, SVG Export Plug-In . SVG Version: 6.00 Build 0)  -->
<!DOCTYPE svg PUBLIC "-//W3C//DTD SVG 1.1//EN" "http://www.w3.org/Graphics/SVG/1.1/DTD/svg11.dtd">
<svg version="1.1" id="Слой_1" xmlns="http://www.w3.org/2000/svg" xmlns:xlink="http://www.w3.org/1999/xlink" x="0px" y="0px"
	 width="23px" height="25.2px" viewBox="0 0 23 25.2" enable-background="new 0 0 23 25.2" xml:space="preserve">
<g>
	<g>
		<path fill="#DDA23E" d="M0,14.148v-3.06l0.62-0.684l1.446-0.432L3.375,9.9l1.377,0.072L12.74,9.9l1.309,0.144l6.955-0.036
			l1.378,0.396l0.482,0.792L23,14.112l-0.826,0.756l-2.066,0.36l-4.063,0.036l-1.378-0.108H9.986l-1.171,0.108L6.06,15.156
			L4.751,15.3l-1.446-0.072L1.86,15.264L0.62,14.832L0,14.148z"/>
	</g>
	<g>
		<path fill="#DDA23E" d="M9.793,4.248v-3.06l0.356-0.684l0.83-0.432L11.731,0l0.791,0.072L17.108,0l0.751,0.144l3.993-0.036
			l0.791,0.396l0.277,0.792L23,4.212l-0.474,0.756l-1.186,0.36l-2.333,0.036l-0.791-0.108h-2.689l-0.673,0.108l-1.582-0.108
			L12.521,5.4l-0.83-0.072l-0.83,0.036l-0.712-0.432L9.793,4.248z"/>
	</g>
	<g>
		<path fill="#DDA23E" d="M9.793,24.048v-3.06l0.356-0.684l0.83-0.432l0.751-0.072l0.791,0.072l4.587-0.072l0.751,0.144l3.993-0.036
			l0.791,0.396l0.277,0.792L23,24.012l-0.474,0.756l-1.186,0.36l-2.333,0.036l-0.791-0.108h-2.689l-0.673,0.108l-1.582-0.108
			L12.521,25.2l-0.83-0.072l-0.83,0.036l-0.712-0.432L9.793,24.048z"/>
	</g>
</g>
</svg>
