<?xml version="1.0" encoding="utf-8"?>
<!-- Generator: Adobe Illustrator 17.0.0, SVG Export Plug-In . SVG Version: 6.00 Build 0)  -->
<!DOCTYPE svg PUBLIC "-//W3C//DTD SVG 1.1//EN" "http://www.w3.org/Graphics/SVG/1.1/DTD/svg11.dtd">
<svg version="1.1" id="Слой_1" xmlns="http://www.w3.org/2000/svg" xmlns:xlink="http://www.w3.org/1999/xlink" x="0px" y="0px"
	 width="50px" height="8px" viewBox="0 0 50 8" enable-background="new 0 0 50 8" xml:space="preserve">
<g>
	<path fill="#DDA23E" d="M41.663,8C38.876,8,27.78,8,24.994,8S11.115,8,8.329,8C5.544,8,1.318,8,0,8V0
		c2.785,0,4.189,1.686,5.317,3.04C6.39,4.328,7.011,5,8.329,5c1.319,0,1.94-0.672,3.013-1.96C12.471,1.686,13.874,0,16.66,0
		s4.19,1.686,5.319,3.039C23.053,4.328,23.675,5,24.994,5s1.941-0.672,3.014-1.961C29.136,1.686,30.54,0,33.326,0
		c2.787,0,4.191,1.686,5.321,3.039C39.72,4.328,40.342,5,41.663,5c1.32,0,1.942-0.672,3.016-1.961C45.808,1.686,47.213,0,50,0v8
		C48.679,8,44.449,8,41.663,8z"/>
</g>
</svg>
